# xmcd CD database file
#
# Track frame offsets:
#	150
#	18547
#	36539
#	52846
#	73900
#	89711
#	112732
#	130681
#	149991
#	168796
#	186433
#
# Disc length: 2781 seconds
#
# Revision: 1
# Processed by: cddbd v1.5.2PL0 Copyright (c) Steve Scherf et al.
# Submitted via: CDex 1.51
#
DISCID=a30adb0b
DTITLE=Corinne Bailey Rae - Corinne Bailey Rae
DYEAR=2006
DGENRE=Pop
TTITLE0=Like A Star
TTITLE1=Enchantment
TTITLE2=Put Your Records On
TTITLE3=Till It Happens To You
TTITLE4=Trouble Sleeping
TTITLE5=Call Me When You Get This
TTITLE6=Choux Pastry Heart
TTITLE7=Breathless
TTITLE8=I'd Like To
TTITLE9=Butterfly
TTITLE10=Seasons Change
EXTD=YEAR: 2006
EXTT0=
EXTT1=
EXTT2=
EXTT3=
EXTT4=
EXTT5=
EXTT6=
EXTT7=
EXTT8=
EXTT9=
EXTT10=
PLAYORDER=
